<?xml version="1.0" encoding="utf-8"?>
<!-- Generator: Adobe Illustrator 22.1.0, SVG Export Plug-In . SVG Version: 6.00 Build 0)  -->
<svg version="1.1" id="Layer_1" xmlns="http://www.w3.org/2000/svg" xmlns:xlink="http://www.w3.org/1999/xlink" x="0px" y="0px"
	 viewBox="0 0 243 144" style="enable-background:new 0 0 243 144;" xml:space="preserve">
<style type="text/css">
	.st0{fill:#00A49F;}
	.st1{fill:#EBE0BE;}
	.st2{fill:#F4EED8;}
	.st3{fill:#353537;}
	.st4{fill:#FFFFFF;}
	.st5{fill:#F065A6;}
	.st6{fill:#E34932;}
	.st7{fill:#6D26D7;}
	.st8{fill:#00BEB9;}
	.st9{fill:#0E0E15;}
	.st10{fill:#FF6748;}
	.st11{display:none;}
	.st12{display:inline;}
	.st13{display:inline;fill:#353537;}
	.st14{fill:#5202B5;}
	.st15{fill:#FF917B;}
	.st16{display:inline;fill:#EBE0BE;}
	.st17{display:inline;fill:#F4EED8;}
</style>
<g>
	<g>
		<g>
			<g>
				<path class="st0" d="M242.1,137.2c0,0-51.8,6.6-115.7,6.6c-63.9,0-115.7-6.6-115.7-6.6s51.8-6.6,115.7-6.6
					C190.3,130.6,242.1,137.2,242.1,137.2z"/>
				<g>
					<g>
						<g>
							<g>
								<polygon class="st1" points="137.1,128.8 110.5,128.8 112.5,102.2 135.2,102.2 								"/>
								<rect x="104.4" y="123.8" class="st2" width="38.8" height="5"/>
							</g>
							<path class="st3" d="M189.9,24.8v82.5c0,2-1.6,3.5-3.5,3.5h-125c-2,0-3.5-1.6-3.5-3.5V24.8c0-2,1.6-3.5,3.5-3.5h125
								C188.3,21.3,189.9,22.8,189.9,24.8z"/>
							<rect x="61.2" y="24.8" class="st4" width="125.2" height="70.3"/>
							<path class="st2" d="M57.8,99v8.4c0,2,1.6,3.5,3.5,3.5h125c2,0,3.5-1.6,3.5-3.5V99H57.8z"/>
						</g>
						<g>
							<polygon class="st1" points="186.4,24.8 186.4,29.9 61.2,29.9 61.2,24.8 186.4,24.8 							"/>
							<rect x="61.2" y="29.9" class="st5" width="125.2" height="5.1"/>
							<rect x="162.9" y="29.9" class="st6" width="23.4" height="5.1"/>
							<rect x="145.5" y="29.9" class="st7" width="17.4" height="5.1"/>
							<g>
								<rect x="128.6" y="39.5" class="st7" width="53.8" height="13.6"/>
								<g>
									<rect x="128.6" y="56.9" class="st1" width="41.2" height="2.9"/>
									<rect x="128.6" y="63.2" class="st2" width="53.8" height="2.9"/>
									<rect x="128.6" y="69.4" class="st2" width="53.8" height="2.9"/>
									<rect x="128.6" y="75.7" class="st2" width="53.8" height="2.9"/>
									<rect x="128.6" y="82" class="st2" width="29.9" height="2.9"/>
								</g>
							</g>
							<g>
								<g>
									<polygon class="st6" points="164.8,82.3 165.6,84 167.4,84.3 166.1,85.6 166.4,87.4 164.8,86.5 163.1,87.4 163.4,85.6 
										162.1,84.3 163.9,84 									"/>
									<polygon class="st6" points="171.7,82.3 172.5,84 174.4,84.3 173.1,85.6 173.4,87.4 171.7,86.5 170.1,87.4 170.4,85.6 
										169.1,84.3 170.9,84 									"/>
									<polygon class="st6" points="178.7,82.3 179.5,84 181.3,84.3 180,85.6 180.3,87.4 178.7,86.5 177.1,87.4 177.4,85.6 
										176,84.3 177.9,84 									"/>
								</g>
							</g>
							<g>
								<path class="st4" d="M170.1,27.4c0,0.7-0.5,1.2-1.2,1.2s-1.2-0.5-1.2-1.2c0-0.7,0.5-1.2,1.2-1.2S170.1,26.7,170.1,27.4z"/>
								<path class="st4" d="M175.3,27.4c0,0.7-0.5,1.2-1.2,1.2c-0.7,0-1.2-0.5-1.2-1.2c0-0.7,0.5-1.2,1.2-1.2
									C174.7,26.2,175.3,26.7,175.3,27.4z"/>
								<path class="st4" d="M180.5,27.4c0,0.7-0.5,1.2-1.2,1.2c-0.7,0-1.2-0.5-1.2-1.2c0-0.7,0.5-1.2,1.2-1.2
									C179.9,26.2,180.5,26.7,180.5,27.4z"/>
							</g>
							<g>
								<rect x="65.3" y="39.5" class="st5" width="20.2" height="20.2"/>
								<rect x="65.3" y="63.6" class="st1" width="20.2" height="5.8"/>
								<g>
									<g>
										<rect x="65.3" y="72.3" class="st2" width="20.2" height="2.2"/>
										<rect x="65.3" y="77.1" class="st2" width="20.2" height="2.2"/>
										<rect x="65.3" y="82" class="st2" width="20.2" height="2.2"/>
										<rect x="65.3" y="86.8" class="st2" width="20.2" height="2.2"/>
									</g>
								</g>
							</g>
							<g>
								<rect x="91" y="39.5" class="st8" width="32.8" height="20.2"/>
								<rect x="91" y="63.6" class="st1" width="32.8" height="5.8"/>
								<g>
									<g>
										<rect x="91" y="72.3" class="st2" width="32.8" height="2.2"/>
										<rect x="91" y="77.1" class="st2" width="32.8" height="2.2"/>
										<rect x="91" y="82" class="st2" width="32.8" height="2.2"/>
										<rect x="91" y="86.8" class="st2" width="20.2" height="2.2"/>
									</g>
								</g>
							</g>
						</g>
					</g>
					<g>
						<g>
							<g>
								<path class="st3" d="M128.8,130.7V85.7c0-2.1-1.7-3.7-3.7-3.7H43.2c-2.1,0-3.7,1.7-3.7,3.7v45.1H128.8z"/>
								<path class="st4" d="M126.4,86.4v44.3H41.9V86.4c0-1,0.8-1.7,1.7-1.7h81C125.6,84.7,126.4,85.5,126.4,86.4z"/>
							</g>
							<g>
								<path class="st2" d="M131.2,138.2H37.1c-3.3,0-5.9-2.6-5.9-5.9v-1.5h105.9v1.5C137.1,135.5,134.4,138.2,131.2,138.2z"/>
								<rect x="74.2" y="130.7" class="st1" width="19.9" height="2.4"/>
								<path class="st1" d="M137.1,130.7v1.5c0,3.3-2.6,5.9-5.9,5.9H37.1c-3.3,0-5.9-2.6-5.9-5.9v-1.5h0.1c0.5,2.8,2.9,4.9,5.8,4.9
									h94.1C134.1,135.7,136.6,133.5,137.1,130.7L137.1,130.7z"/>
							</g>
						</g>
						<path class="st1" d="M126.4,86.4v1.7H41.9v-1.7c0-1,0.8-1.7,1.7-1.7h81C125.6,84.7,126.4,85.5,126.4,86.4z"/>
						<rect x="41.9" y="88.2" class="st5" width="84.5" height="3.5"/>
						<rect x="110.6" y="88.2" class="st6" width="15.8" height="3.5"/>
						<rect x="98.8" y="88.2" class="st7" width="11.8" height="3.5"/>
						<g>
							<rect x="87.3" y="94.6" class="st7" width="36.4" height="9.2"/>
							<g>
								<rect x="87.3" y="106.3" class="st1" width="27.9" height="1.9"/>
								<rect x="87.3" y="110.6" class="st2" width="36.4" height="1.9"/>
								<rect x="87.3" y="114.8" class="st2" width="36.4" height="1.9"/>
								<rect x="87.3" y="119.1" class="st2" width="36.4" height="1.9"/>
								<rect x="87.3" y="123.3" class="st2" width="20.2" height="1.9"/>
							</g>
						</g>
						<g>
							<g>
								<polygon class="st6" points="111.8,123.5 112.3,124.7 113.6,124.8 112.7,125.7 112.9,126.9 111.8,126.4 110.7,126.9 
									110.9,125.7 110,124.8 111.2,124.7 								"/>
								<polygon class="st6" points="116.5,123.5 117.1,124.7 118.3,124.8 117.4,125.7 117.6,126.9 116.5,126.4 115.4,126.9 
									115.6,125.7 114.7,124.8 115.9,124.7 								"/>
								<polygon class="st6" points="121.2,123.5 121.8,124.7 123,124.8 122.1,125.7 122.3,126.9 121.2,126.4 120.1,126.9 
									120.3,125.7 119.4,124.8 120.6,124.7 								"/>
							</g>
						</g>
						<g>
							<path class="st4" d="M115.4,86.4c0,0.4-0.4,0.8-0.8,0.8c-0.4,0-0.8-0.4-0.8-0.8c0-0.4,0.4-0.8,0.8-0.8
								C115,85.6,115.4,86,115.4,86.4z"/>
							<path class="st4" d="M118.9,86.4c0,0.4-0.4,0.8-0.8,0.8c-0.4,0-0.8-0.4-0.8-0.8c0-0.4,0.4-0.8,0.8-0.8
								C118.5,85.6,118.9,86,118.9,86.4z"/>
							<path class="st4" d="M122.4,86.4c0,0.4-0.4,0.8-0.8,0.8c-0.4,0-0.8-0.4-0.8-0.8c0-0.4,0.4-0.8,0.8-0.8
								C122,85.6,122.4,86,122.4,86.4z"/>
						</g>
						<g>
							<rect x="44.6" y="94.6" class="st5" width="13.7" height="13.7"/>
							<rect x="44.6" y="110.9" class="st1" width="13.7" height="3.9"/>
							<g>
								<g>
									<rect x="44.6" y="116.8" class="st2" width="13.7" height="1.5"/>
									<rect x="44.6" y="120" class="st2" width="13.7" height="1.5"/>
									<rect x="44.6" y="123.3" class="st2" width="13.7" height="1.5"/>
									<rect x="44.6" y="126.5" class="st2" width="13.7" height="1.5"/>
								</g>
							</g>
						</g>
						<g>
							<rect x="62" y="94.6" class="st8" width="22.1" height="13.7"/>
							<rect x="62" y="110.9" class="st1" width="22.1" height="3.9"/>
							<g>
								<g>
									<rect x="62" y="116.8" class="st2" width="22.1" height="1.5"/>
									<rect x="62" y="120" class="st2" width="22.1" height="1.5"/>
									<rect x="62" y="123.3" class="st2" width="22.1" height="1.5"/>
									<rect x="62" y="126.5" class="st2" width="13.7" height="1.5"/>
								</g>
							</g>
						</g>
					</g>
					<g>
						<g>
							<g>
								<g>
									<g>
										<g>
											<g>
												<g>
													<path class="st9" d="M209.8,138.2h-14.5c-0.8,0-1.4-0.6-1.4-1.4V111c0-0.8,0.6-1.4,1.4-1.4h14.5c0.8,0,1.4,0.6,1.4,1.4
														v25.7C211.3,137.5,210.6,138.2,209.8,138.2z"/>
												</g>
											</g>
										</g>
										<path class="st3" d="M209.6,110.1h-14c-0.6,0-1.1,0.5-1.1,1.1v25.4c0,0.6,0.5,1.1,1.1,1.1h14c0.6,0,1.1-0.5,1.1-1.1v-25.4
											C210.7,110.6,210.2,110.1,209.6,110.1z"/>
										<path class="st4" d="M195.3,111.2v24.7c0,0.6,0.5,1,1,1h12.6c0.6,0,1-0.5,1-1v-24.7H195.3z"/>
										<rect x="195.3" y="111.2" class="st3" width="14.6" height="0.9"/>
										<rect x="195.3" y="112.1" class="st5" width="14.6" height="1.2"/>
										<rect x="202.6" y="112.1" class="st7" width="7.3" height="1.2"/>
										<rect x="206.5" y="112.1" class="st6" width="3.3" height="1.2"/>
										<path class="st3" d="M204.2,112.4h-3.3c-0.4,0-0.8-0.2-1-0.6l-0.6-1h6.4l-0.6,1C205,112.2,204.6,112.4,204.2,112.4z"/>
										<path class="st9" d="M204,111.7h-2.9c-0.1,0-0.2-0.1-0.2-0.2l0,0c0-0.1,0.1-0.2,0.2-0.2h2.9c0.1,0,0.2,0.1,0.2,0.2l0,0
											C204.2,111.6,204.1,111.7,204,111.7z"/>
									</g>
								</g>
							</g>
							<g>
								<rect x="193.4" y="114.1" class="st4" width="0.5" height="2"/>
								<rect x="193.4" y="117.2" class="st4" width="0.5" height="2"/>
								<rect x="211.3" y="114.1" class="st4" width="0.5" height="2"/>
							</g>
						</g>
						<g>
							<g>
								<g>
									<rect x="196.2" y="125.8" class="st7" width="11.5" height="2.9"/>
									<g>
										<rect x="196.2" y="129.5" class="st1" width="8.8" height="0.6"/>
										<rect x="196.2" y="130.8" class="st2" width="11.5" height="0.6"/>
										<rect x="196.2" y="132.2" class="st2" width="11.5" height="0.6"/>
										<rect x="196.2" y="133.5" class="st2" width="11.5" height="0.6"/>
										<rect x="196.2" y="134.9" class="st2" width="6.4" height="0.6"/>
									</g>
								</g>
								<g>
									<g>
										<polygon class="st6" points="203.9,134.9 204.1,135.3 204.5,135.4 204.2,135.6 204.3,136 203.9,135.8 203.6,136 
											203.6,135.6 203.4,135.4 203.8,135.3 										"/>
										<polygon class="st6" points="205.4,134.9 205.6,135.3 206,135.4 205.7,135.6 205.8,136 205.4,135.8 205.1,136 
											205.1,135.6 204.8,135.4 205.2,135.3 										"/>
										<polygon class="st6" points="206.9,134.9 207.1,135.3 207.5,135.4 207.2,135.6 207.2,136 206.9,135.8 206.5,136 
											206.6,135.6 206.3,135.4 206.7,135.3 										"/>
									</g>
								</g>
							</g>
							<g>
								<g>
									<rect x="196.2" y="114.1" class="st5" width="4.5" height="4.5"/>
									<rect x="196.2" y="119.4" class="st1" width="4.5" height="1.3"/>
									<g>
										<g>
											<rect x="196.2" y="121.3" class="st2" width="4.5" height="0.5"/>
											<rect x="196.2" y="122.4" class="st2" width="4.5" height="0.5"/>
											<rect x="196.2" y="123.4" class="st2" width="4.5" height="0.5"/>
											<rect x="196.2" y="124.5" class="st2" width="4.5" height="0.5"/>
										</g>
									</g>
								</g>
								<g>
									<rect x="201.7" y="114.1" class="st8" width="7.2" height="4.5"/>
									<rect x="201.7" y="119.4" class="st1" width="7.2" height="1.3"/>
									<g>
										<g>
											<rect x="201.7" y="121.3" class="st2" width="7.2" height="0.5"/>
											<rect x="201.7" y="122.4" class="st2" width="7.2" height="0.5"/>
											<rect x="201.7" y="123.4" class="st2" width="7.2" height="0.5"/>
											<rect x="201.7" y="124.5" class="st2" width="4.5" height="0.5"/>
										</g>
									</g>
								</g>
							</g>
						</g>
					</g>
					<g>
						<path class="st3" d="M190.3,138.2h-49.4c-1.1,0-1.9-0.9-1.9-1.9V108c0-1.1,0.9-1.9,1.9-1.9h49.4c1.1,0,1.9,0.9,1.9,1.9v28.3
							C192.2,137.3,191.4,138.2,190.3,138.2z"/>
						<path class="st4" d="M188.6,107.7v28.9h-47.1c-0.6,0-1.2-0.5-1.2-1.2v-26.6c0-0.6,0.5-1.2,1.2-1.2H188.6z"/>
						<path class="st9" d="M191.6,122.1c0,0.6-0.5,1.1-1.1,1.1c-0.6,0-1.1-0.5-1.1-1.1s0.5-1.1,1.1-1.1
							C191.1,121,191.6,121.5,191.6,122.1z"/>
						<g>
							<g>
								<path class="st1" d="M188.6,107.7v2.5h-48.3v-1.3c0-0.6,0.5-1.2,1.2-1.2H188.6z"/>
								<g>
									<path class="st4" d="M182.2,108.9c0,0.3-0.2,0.5-0.5,0.5c-0.3,0-0.5-0.2-0.5-0.5c0-0.3,0.2-0.5,0.5-0.5
										C182,108.4,182.2,108.6,182.2,108.9z"/>
									<path class="st4" d="M184.8,108.9c0,0.3-0.2,0.5-0.5,0.5c-0.3,0-0.5-0.2-0.5-0.5c0-0.3,0.2-0.5,0.5-0.5
										C184.5,108.4,184.8,108.6,184.8,108.9z"/>
									<path class="st4" d="M187.3,108.9c0,0.3-0.2,0.5-0.5,0.5c-0.3,0-0.5-0.2-0.5-0.5c0-0.3,0.2-0.5,0.5-0.5
										C187,108.4,187.3,108.6,187.3,108.9z"/>
								</g>
							</g>
							<g>
								<rect x="140.4" y="110.1" class="st5" width="48.3" height="2"/>
								<rect x="179.6" y="110.1" class="st6" width="9" height="2"/>
								<rect x="172.9" y="110.1" class="st7" width="6.7" height="2"/>
								<g>
									<rect x="166.3" y="113.8" class="st7" width="20.8" height="5.2"/>
									<g>
										<rect x="166.3" y="120.5" class="st1" width="15.9" height="1.1"/>
										<rect x="166.3" y="122.9" class="st2" width="20.8" height="1.1"/>
										<rect x="166.3" y="125.4" class="st2" width="20.8" height="1.1"/>
										<rect x="166.3" y="127.8" class="st2" width="20.8" height="1.1"/>
										<rect x="166.3" y="130.2" class="st2" width="11.5" height="1.1"/>
									</g>
								</g>
								<g>
									<g>
										<polygon class="st6" points="180.3,130.3 180.6,131 181.3,131.1 180.8,131.6 180.9,132.3 180.3,132 179.6,132.3 
											179.8,131.6 179.3,131.1 180,131 										"/>
										<polygon class="st6" points="183,130.3 183.3,131 184,131.1 183.5,131.6 183.6,132.3 183,132 182.3,132.3 182.5,131.6 
											181.9,131.1 182.6,131 										"/>
										<polygon class="st6" points="185.6,130.3 186,131 186.7,131.1 186.2,131.6 186.3,132.3 185.6,132 185,132.3 185.1,131.6 
											184.6,131.1 185.3,131 										"/>
									</g>
								</g>
								<g>
									<rect x="141.9" y="113.8" class="st5" width="7.8" height="7.8"/>
									<rect x="141.9" y="123.1" class="st1" width="7.8" height="2.2"/>
									<g>
										<g>
											<rect x="141.9" y="126.5" class="st2" width="7.8" height="0.8"/>
											<rect x="141.9" y="128.3" class="st2" width="7.8" height="0.8"/>
											<rect x="141.9" y="130.2" class="st2" width="7.8" height="0.8"/>
											<rect x="141.9" y="132.1" class="st2" width="7.8" height="0.8"/>
										</g>
									</g>
								</g>
								<g>
									<rect x="151.8" y="113.8" class="st8" width="12.6" height="7.8"/>
									<rect x="151.8" y="123.1" class="st1" width="12.6" height="2.2"/>
									<g>
										<g>
											<rect x="151.8" y="126.5" class="st2" width="12.6" height="0.8"/>
											<rect x="151.8" y="128.3" class="st2" width="12.6" height="0.8"/>
											<rect x="151.8" y="130.2" class="st2" width="12.6" height="0.8"/>
											<rect x="151.8" y="132.1" class="st2" width="7.8" height="0.8"/>
										</g>
									</g>
								</g>
							</g>
						</g>
					</g>
				</g>
			</g>
			<path class="st10" d="M12.2,70.9c0,1.3-1.1,2.4-2.4,2.4c-1.3,0-2.4-1.1-2.4-2.4c0-1.3,1.1-2.4,2.4-2.4
				C11.1,68.4,12.2,69.5,12.2,70.9z"/>
			<path class="st7" d="M33.6,112.7c0,1.3-1.1,2.4-2.4,2.4c-1.3,0-2.4-1.1-2.4-2.4c0-1.3,1.1-2.4,2.4-2.4
				C32.5,110.3,33.6,111.4,33.6,112.7z"/>
			<path class="st4" d="M200.7,67c0,1.3-1.1,2.4-2.4,2.4s-2.4-1.1-2.4-2.4c0-1.3,1.1-2.4,2.4-2.4S200.7,65.7,200.7,67z"/>
			<circle class="st7" cx="198.4" cy="33.7" r="2.4"/>
			<path class="st7" d="M206.5,42.7c0,1.7-1.4,3.2-3.2,3.2c-1.7,0-3.2-1.4-3.2-3.2c0-1.7,1.4-3.2,3.2-3.2
				C205.1,39.5,206.5,40.9,206.5,42.7z"/>
			<path class="st7" d="M29.2,121.8c0,1.7-1.4,3.2-3.2,3.2c-1.7,0-3.2-1.4-3.2-3.2s1.4-3.2,3.2-3.2C27.8,118.6,29.2,120,29.2,121.8z
				"/>
			<path class="st4" d="M211.4,73.3c0,1.7-1.4,3.2-3.2,3.2S205,75,205,73.3c0-1.7,1.4-3.2,3.2-3.2S211.4,71.5,211.4,73.3z"/>
			<path class="st10" d="M6.3,78.6c0,1.7-1.4,3.1-3.1,3.1c-1.7,0-3.1-1.4-3.1-3.1c0-1.7,1.4-3.1,3.1-3.1C4.9,75.5,6.3,76.9,6.3,78.6
				z"/>
			<g>
				<path class="st4" d="M199.3,12l0.6-2.3l0.6,2.3c0.5,1.9,1.8,3.5,3.6,4.5l0,0l0,0c-1.7,1-3,2.6-3.6,4.5l-0.6,2.3l-0.6-2.3
					c-0.5-1.9-1.8-3.5-3.6-4.5l0,0l0,0C197.5,15.5,198.8,13.9,199.3,12z"/>
				<path class="st4" d="M190.4,5.2l0.5-1.6l0.5,1.6c0.4,1.4,1.3,2.5,2.5,3.2l0,0l0,0c-1.2,0.7-2.2,1.8-2.5,3.2l-0.5,1.6l-0.5-1.6
					c-0.4-1.4-1.3-2.5-2.5-3.2l0,0l0,0C189.1,7.7,190,6.6,190.4,5.2z"/>
			</g>
			<g>
				<path class="st4" d="M225.2,103l0.4,1.5l0.4-1.5c0.4-1.2,1.2-2.3,2.3-2.9l0,0l0,0c-1.1-0.6-2-1.7-2.3-2.9l-0.4-1.5l-0.4,1.5
					c-0.4,1.2-1.2,2.3-2.3,2.9l0,0l0,0C224,100.7,224.8,101.7,225.2,103z"/>
				<path class="st4" d="M219.3,107.4l0.3,1l0.3-1c0.3-0.9,0.8-1.6,1.7-2.1l0,0l0,0c-0.8-0.4-1.4-1.2-1.7-2.1l-0.3-1l-0.3,1
					c-0.2,0.9-0.8,1.6-1.7,2.1l0,0l0,0C218.5,105.7,219.1,106.5,219.3,107.4z"/>
			</g>
			<g>
				<g>
					<path class="st7" d="M58.2,9.4l0.5,1.9l0.5-1.9c0.4-1.6,1.5-2.9,2.9-3.7l0,0l0,0c-1.4-0.8-2.5-2.1-2.9-3.7l-0.5-1.9L58.2,2
						c-0.4,1.6-1.5,2.9-2.9,3.7l0,0l0,0C56.7,6.5,57.7,7.8,58.2,9.4z"/>
					<path class="st7" d="M50.8,15l0.4,1.3l0.4-1.3c0.3-1.1,1.1-2.1,2.1-2.6l0,0l0,0c-1-0.6-1.8-1.5-2.1-2.6l-0.4-1.3l-0.4,1.3
						c-0.3,1.1-1.1,2.1-2.1,2.6l0,0l0,0C49.7,12.9,50.5,13.8,50.8,15z"/>
				</g>
			</g>
			<g>
				<g>
					<path class="st4" d="M25.1,30.2h-1.2c-0.1-0.3-0.2-0.6-0.4-0.9l0.8-0.8c0.2-0.2,0.2-0.6,0-0.8l-1-1c-0.2-0.2-0.6-0.2-0.8,0
						l-0.8,0.8c-0.3-0.2-0.6-0.3-0.9-0.4V26c0-0.3-0.3-0.6-0.6-0.6h-1.4c-0.3,0-0.6,0.3-0.6,0.6v1.2c-0.3,0.1-0.6,0.2-0.9,0.4
						l-0.8-0.8c-0.2-0.2-0.6-0.2-0.8,0l-1,1c-0.2,0.2-0.2,0.6,0,0.8l0.8,0.8c-0.2,0.3-0.3,0.6-0.4,0.9h-1.2c-0.3,0-0.6,0.3-0.6,0.6
						v1.4c0,0.3,0.3,0.6,0.6,0.6h1.2c0.1,0.3,0.2,0.6,0.4,0.9l-0.8,0.8c-0.2,0.2-0.2,0.6,0,0.8l1,1c0.2,0.2,0.6,0.2,0.8,0l0.8-0.8
						c0.3,0.2,0.6,0.3,0.9,0.4v1.2c0,0.3,0.3,0.6,0.6,0.6h1.4c0.3,0,0.6-0.3,0.6-0.6v-1.2c0.3-0.1,0.6-0.2,0.9-0.4l0.8,0.8
						c0.2,0.2,0.6,0.2,0.8,0l1-1c0.2-0.2,0.2-0.6,0-0.8l-0.8-0.8c0.2-0.3,0.3-0.6,0.4-0.9h1.2c0.3,0,0.6-0.3,0.6-0.6v-1.4
						C25.7,30.5,25.4,30.2,25.1,30.2z M19.5,34c-1.4,0-2.5-1.1-2.5-2.5s1.1-2.5,2.5-2.5c1.4,0,2.5,1.1,2.5,2.5S20.9,34,19.5,34z"/>
					<path class="st4" d="M32.5,14.4H31c-0.1-0.4-0.3-0.8-0.5-1.2l1.1-1.1c0.3-0.3,0.3-0.8,0-1.1l-1.3-1.3c-0.3-0.3-0.8-0.3-1.1,0
						l-1.1,1.1c-0.4-0.2-0.8-0.4-1.2-0.5V8.7c0-0.4-0.3-0.8-0.8-0.8h-1.8c-0.4,0-0.8,0.3-0.8,0.8v1.5c-0.4,0.1-0.8,0.3-1.2,0.5
						l-1.1-1.1c-0.3-0.3-0.8-0.3-1.1,0L18.8,11c-0.3,0.3-0.3,0.8,0,1.1l1.1,1.1c-0.2,0.4-0.4,0.8-0.5,1.2h-1.5
						c-0.4,0-0.8,0.3-0.8,0.8V17c0,0.4,0.3,0.8,0.8,0.8h1.5c0.1,0.4,0.3,0.8,0.5,1.2L18.8,20c-0.3,0.3-0.3,0.8,0,1.1l1.3,1.3
						c0.3,0.3,0.8,0.3,1.1,0l1.1-1.1c0.4,0.2,0.8,0.4,1.2,0.5v1.5c0,0.4,0.3,0.8,0.8,0.8h1.8c0.4,0,0.8-0.3,0.8-0.8v-1.5
						c0.4-0.1,0.8-0.3,1.2-0.5l1.1,1.1c0.3,0.3,0.8,0.3,1.1,0l1.3-1.3c0.3-0.3,0.3-0.8,0-1.1l-1.1-1.1c0.2-0.4,0.4-0.8,0.5-1.2h1.5
						c0.4,0,0.8-0.3,0.8-0.8v-1.8C33.3,14.7,32.9,14.4,32.5,14.4z M25.2,19.3c-1.8,0-3.2-1.4-3.2-3.2c0-1.8,1.4-3.2,3.2-3.2
						c1.8,0,3.2,1.4,3.2,3.2C28.4,17.8,27,19.3,25.2,19.3z"/>
				</g>
			</g>
			<g>
				<g>
					<polygon class="st4" points="83.6,7.7 84.5,9.7 86.7,10 85.2,11.6 85.5,13.7 83.6,12.7 81.6,13.7 82,11.6 80.4,10 82.6,9.7 
											"/>
					<polygon class="st4" points="92.3,7.7 93.3,9.7 95.5,10 93.9,11.6 94.3,13.7 92.3,12.7 90.4,13.7 90.8,11.6 89.2,10 91.4,9.7 
											"/>
					<polygon class="st4" points="101.1,7.7 102.1,9.7 104.3,10 102.7,11.6 103.1,13.7 101.1,12.7 99.2,13.7 99.5,11.6 98,10 
						100.2,9.7 					"/>
					<polygon class="st4" points="109.9,7.7 110.9,9.7 113.1,10 111.5,11.6 111.9,13.7 109.9,12.7 108,13.7 108.3,11.6 106.7,10 
						108.9,9.7 					"/>
					<polygon class="st4" points="118.7,7.7 119.7,9.7 121.9,10 120.3,11.6 120.6,13.7 118.7,12.7 116.7,13.7 117.1,11.6 115.5,10 
						117.7,9.7 					"/>
				</g>
			</g>
			<g>
				<path class="st10" d="M207.7,82.2c-5.2,0-9.4,4.2-9.4,9.4c0,5.2,4.2,9.4,9.4,9.4c5.2,0,9.4-4.2,9.4-9.4
					C217.1,86.4,212.9,82.2,207.7,82.2z M206,83.6c-0.9,0.7-1.6,1.9-2.1,3.4c-0.8-0.3-1.5-0.7-2.1-1.1
					C202.9,84.7,204.4,83.9,206,83.6z M201.2,86.6c0.7,0.5,1.5,1,2.5,1.3c-0.2,1-0.4,2.1-0.4,3.3h-3.8
					C199.6,89.4,200.2,87.8,201.2,86.6z M199.5,92.1h3.8c0,1.2,0.2,2.3,0.4,3.4c-0.9,0.3-1.8,0.8-2.4,1.3
					C200.2,95.4,199.6,93.8,199.5,92.1z M201.9,97.4c0.6-0.4,1.3-0.8,2.1-1.1c0.5,1.5,1.2,2.7,2,3.3C204.4,99.3,203,98.5,201.9,97.4
					z M207.2,99.3c-1-0.3-1.8-1.5-2.4-3.2c0.7-0.2,1.6-0.3,2.4-0.3V99.3z M207.2,94.8c-0.9,0-1.8,0.2-2.6,0.4
					c-0.2-0.9-0.4-2-0.4-3.1h3V94.8z M207.2,91.2h-3c0-1.1,0.2-2.1,0.4-3c0.8,0.2,1.7,0.4,2.7,0.4V91.2z M207.2,87.6
					c-0.9,0-1.7-0.2-2.4-0.3c0.6-1.8,1.4-3,2.4-3.3V87.6z M215.9,91.2h-3.8c0-1.2-0.2-2.3-0.4-3.3c0.9-0.3,1.8-0.8,2.5-1.3
					C215.1,87.8,215.8,89.4,215.9,91.2z M213.6,85.9c-0.6,0.4-1.3,0.8-2.1,1.1c-0.5-1.5-1.2-2.7-2.1-3.4
					C211,83.9,212.4,84.7,213.6,85.9z M208.1,83.9c1,0.3,1.9,1.6,2.4,3.3c-0.8,0.2-1.6,0.3-2.4,0.3V83.9z M208.1,88.5
					c0.9,0,1.8-0.2,2.7-0.4c0.2,0.9,0.3,1.9,0.4,3h-3V88.5z M208.1,92.1h3c0,1.1-0.2,2.2-0.4,3.1c-0.8-0.2-1.7-0.3-2.6-0.4V92.1z
					 M208.1,99.3v-3.6c0.8,0,1.6,0.1,2.4,0.3C210,97.8,209.1,99,208.1,99.3z M209.4,99.6c0.9-0.7,1.6-1.8,2-3.3
					c0.8,0.3,1.5,0.6,2.1,1.1C212.4,98.5,211,99.3,209.4,99.6z M214.1,96.7c-0.7-0.5-1.5-1-2.4-1.3c0.2-1,0.4-2.2,0.4-3.4h3.8
					C215.8,93.8,215.1,95.4,214.1,96.7z"/>
			</g>
			<g>
				<g>
					<path class="st10" d="M156.6,6.1l-4.3,1.6l4.3,1.6v2.1l-6.2-2.5V6.5l6.2-2.5V6.1z"/>
					<path class="st10" d="M164.9,0.3l-4.5,14.8h-2.5l4.4-14.8H164.9z"/>
					<path class="st10" d="M165.5,9.3l4.3-1.6l-4.3-1.6V4l6.2,2.5v2.4l-6.2,2.5V9.3z"/>
				</g>
			</g>
		</g>
	</g>
</g>
<g>
	<path class="st3" d="M37.3,33.2c-0.4,2-0.7,4-0.5,6c0.2,2,0.9,4,2.3,5.4c1.4,1.4,3.5,2.2,5.5,2.4c3.3,0.5,6.7-0.1,9.6-1.7
		c1.6-0.8,3.1-2,3.6-3.7c0.6-1.7,0-3.5-0.7-5.2c-0.5-1.1-1.1-2.3-1.9-3.2c-0.7-0.7-1.5-1.2-2.2-2c-0.4-0.4-0.6-0.8-0.9-1.3
		c-0.1-0.5-0.1-1-0.1-1.5c0.1-1.5,0.3-3-0.1-4.5c-0.4-1.6-1.2-3-2.3-4.2c-0.7-1.2-1.6-2.2-2.9-2.6c-3.7-1.2-9.7,1.4-10.2,5.6
		c-0.3,2.3,1.1,4.5,1.2,6.8C37.8,30.9,37.6,32,37.3,33.2z M50.4,21.6c0-0.1-0.1-0.2-0.1-0.3c1,1.6,1.6,3.4,1.5,5.5
		c0,0.7-0.1,1.4-0.1,2.1C51,26.6,51.1,24,50.4,21.6z"/>
	<g>
		<g class="st11">
			<g class="st12">
				<path class="st2" d="M61.6,84.4c4.8-0.5,8.1-2.5,9.6-5.8c4.3-9.5-7.6-26.9-8.1-27.6l-1.4,1c0.1,0.2,11.9,17.3,8,26
					c-1.2,2.7-4,4.3-8.2,4.8L61.6,84.4z"/>
			</g>
			<path class="st13" d="M50,61.9h13.3c2.4,0,4.3-1.9,4.3-4.3v-9c0-2.4-1.9-4.3-4.3-4.3H50V61.9z"/>
			<path class="st13" d="M43.5,85.3H66c0.9,0,1.6-0.7,1.6-1.6l0,0c0-0.9-0.7-1.6-1.6-1.6H43.5c-0.9,0-1.6,0.7-1.6,1.6l0,0
				C41.9,84.6,42.6,85.3,43.5,85.3z"/>
		</g>
		<g>
			<g>
				<path class="st14" d="M54.5,82c0,0-11.7,0.5-15.4,0l3.5,22.5H38c0,0-9.8-27.1-6.5-30.4c3.4-3.4,13.9-3,13.9-3l9.7,5L54.5,82z"/>
				<g>
					<path class="st3" d="M41.9,104.5l-0.1,1.4l-0.2,1.9h-8.3c-0.5,0-0.7-0.6-0.3-0.9c0.5-0.4,1.2-0.8,1.9-1.1
						c1.7-0.8,3.5-1.3,3.5-1.3H41.9z"/>
					<path class="st2" d="M41.9,104.5l-0.1,1.4c-0.5,0.3-1.1,0.5-1.7,0.6c-1,0.2-1.9,0.2-2.9,0.2c-0.9,0-1.8-0.2-2.3-0.9
						c1.7-0.8,3.5-1.3,3.5-1.3H41.9z"/>
				</g>
			</g>
			<path class="st10" d="M39.9,32.1c0,0-2.5,1.1-3.6,6c-1.1,4.9-2,16.8-2,16.8L26,57.5l-0.1,3.8l16.8,0.8l-0.4-14.6L39.9,32.1z"/>
			<g>
				<g>
					<path class="st3" d="M18.5,98.3L18,99.6l-0.7,1.8l-7.9-2.4c-0.4-0.1-0.5-0.8-0.1-0.9c0.6-0.3,1.4-0.4,2.1-0.5
						c1.8-0.3,3.7-0.2,3.7-0.2L18.5,98.3z"/>
					<path class="st2" d="M18.5,98.3L18,99.6c-0.6,0.1-1.2,0.1-1.8,0.1c-1-0.1-1.9-0.4-2.8-0.7c-0.8-0.3-1.6-0.7-1.9-1.6
						c1.8-0.3,3.7-0.2,3.7-0.2L18.5,98.3z"/>
				</g>
				<path class="st7" d="M61.1,66.9c0,0,2.9,12.4-4.2,14.7c-7.2,2.3-27.4-6.5-27.4-6.5L19.3,98.5l-4.9-1.3c0,0,5.8-29.8,9.6-30.2
					c3.8-0.4,15.9,0,15.9,0H61.1z"/>
			</g>
			<path class="st15" d="M39.9,66.9l1.9,0.3l5.3,1l15.7,2.8c0,0-6.5-18-7-20.3c-0.4-2.4-0.5-8.8,0-12c0.4-3.2-4.5-6.7-4.5-6.7H39.9
				c0,0-0.1,0.1-0.1,0.1C33.9,39.1,39.9,66.9,39.9,66.9z"/>
			<path class="st14" d="M41.7,67.3l5.3,1c-3.5-23.2,2-36.1,2-36.1h-9.2c0,0-0.1,0.1-0.1,0.1C36.4,36.5,40.9,62.5,41.7,67.3z"/>
			<path class="st2" d="M49.1,32.1c0,0-3.3,5.1-6.9,4c-3.6-1.1-2.3-4-2.3-4H49.1z"/>
			<g>
				<path class="st2" d="M22.2,63.9c0.8-0.8,2.5-3.1,3.8-3.3c0.6-0.1,4.6,1.7,4.6,1.7s6.9-0.3,13.3-0.8l0.3,4.3
					c-4.5-0.1-9.6-0.2-13.9-0.4c-3.2,1-6.4,0.1-8-0.4C21.9,64.9,21.8,64.3,22.2,63.9z"/>
				<path class="st10" d="M51.2,32.1c0,0,5.7,2.1,6.9,9.6c1.2,7.5,0.6,25.1-1.5,26.3c-2,1.3-14.1-0.6-14.1-0.6v-6.1l8.1-0.5
					C50.7,60.7,46.1,36.7,51.2,32.1z"/>
			</g>
		</g>
		<g class="st11">
			
				<rect x="53.2" y="87.8" transform="matrix(-1 -4.507962e-11 4.507962e-11 -1 109.5257 191.0515)" class="st16" width="3.1" height="15.5"/>
			
				<rect x="52.4" y="85.3" transform="matrix(-1 -4.494595e-11 4.494595e-11 -1 109.4774 176.6038)" class="st17" width="4.7" height="6"/>
		</g>
		<g class="st11">
			<g class="st12">
				<rect x="45.5" y="102.6" class="st3" width="18.5" height="1.9"/>
				<g>
					<path class="st1" d="M61.3,106.2c0,0.9,0.7,1.7,1.7,1.7c0.9,0,1.7-0.7,1.7-1.7c0-0.9-0.7-1.7-1.7-1.7
						C62,104.5,61.3,105.2,61.3,106.2z"/>
					<path class="st1" d="M44.9,106.2c0,0.9,0.7,1.7,1.7,1.7c0.9,0,1.7-0.7,1.7-1.7c0-0.9-0.7-1.7-1.7-1.7
						C45.6,104.5,44.9,105.2,44.9,106.2z"/>
				</g>
			</g>
		</g>
	</g>
	<g>
		
			<rect x="25.5" y="65.7" transform="matrix(-1 -4.487356e-11 4.487356e-11 -1 64.1696 133.1272)" class="st3" width="13.2" height="1.7"/>
		<polygon class="st3" points="8.9,67.4 30,67.4 26.7,52.1 5.6,52.1 		"/>
	</g>
	<g>
		<path class="st2" d="M38.2,23.5c0,0-1.3,8.1,3.2,8c4.4-0.2,6-3.4,5.7-5.3c-0.4-1.9-0.7-5.7-4.5-6.1C38.7,19.7,38.2,23.5,38.2,23.5
			z"/>
		<path class="st2" d="M45.9,28c0.1,0.8,0.9,1.3,1.7,1.2c0.8-0.1,1.3-0.9,1.2-1.7c-0.1-0.8-0.9-1.3-1.7-1.2
			C46.2,26.4,45.7,27.2,45.9,28z"/>
		<path class="st3" d="M48.1,26.5c0,0-1.1-0.4-1.9,0.4c0,0-5.5-1.3-5.5-4.3c0,0-1.1-0.5-2.2-0.1c0,0,1-4.9,7.3-3.2
			c6.3,1.7,3,8.2,3,8.2S48.7,26.9,48.1,26.5z"/>
		<path class="st2" d="M46.7,27.6l0.2,1.1c0,0,0,0.2,0.1,0.5c0,0.4,0.1,1.1,0.1,1.7c0,1-0.1,2-0.4,2.4c-0.8,0.8-3.9,1-4.4,0.8
			C42.1,34,42,33.5,42,32.7c0-0.4,0-0.8-0.1-1.3c0,0,0,0,0,0c0-1.4,0-2.7,0-2.7L46.7,27.6z"/>
		<path class="st1" d="M47,29.2c0,0.4,0.1,1.1,0.1,1.7c-1.2,0.6-3.7,1.7-5.1,1.9c0-0.4,0-0.8-0.1-1.3c0,0,0,0,0,0
			C42.1,31.4,46.4,30.4,47,29.2z"/>
	</g>
</g>
</svg>
