<?xml version="1.0" encoding="utf-8"?>
<!-- Generator: Adobe Illustrator 22.1.0, SVG Export Plug-In . SVG Version: 6.00 Build 0)  -->
<svg version="1.1" id="Layer_1" xmlns="http://www.w3.org/2000/svg" xmlns:xlink="http://www.w3.org/1999/xlink" x="0px" y="0px"
	 viewBox="0 0 595 595" style="enable-background:new 0 0 595 595;" xml:space="preserve">
<style type="text/css">
	.st0{fill:#333333;}
</style>
<g transform="translate(0.000000,595.000000) scale(0.100000,-0.100000)">
	<path class="st0" d="M2345,5698c-179-19-334-82-472-192c-79-63-106-76-117-58c-9,15-67,12-102-4c-18-9-48-32-65-52
		c-18-20-41-38-51-39c-31-5-75-31-103-61s-55-107-51-146c3-26-11-34-29-18c-6,5-26,19-47,31l-36,22v-93c1-51-1-122-3-158s0-77,4-92
		c6-23-1-34-59-90c-84-80-179-206-243-322c-47-86-85-175-78-183c2-1,19,18,38,45c34,47,45,61,94,117l27,30l-21-42
		c-43-87-105-268-117-343c-2-14-7-36-10-50c-3-13-8-40-10-60c-2-19-6-46-9-60c-4-22,1-19,36,20l40,45l-6-55c-3-30-8-67-10-82
		c-5-43,10-42,39,2c30,45,40,51,27,17c-5-13-12-40-15-60s-10-56-15-79c-6-24-13-65-16-93c-4-27-11-68-16-90c-13-61-12-61,32-5
		c39,49,61,62,41,23c-21-40-35-168-21-193c6-12,8-10,9,8c0,26,34,97,52,108c8,5,9,2,4-11c-27-70-31-249-8-305l11-25l7,23
		c11,36,70,155,89,177l17,20l-7-20c-33-93-47-151-51-220c-2-44-1-73,2-65c9,21,35,50,46,50c8,0,6-81-8-305c-5-66-8-141-9-168v-47
		l-65-21c-112-37-247-105-265-133c-17-25-16-32,6-144c26-130,48-168,95-159c21,4,25-1,33-32c5-20,12-49,14-66c11-65,50-234,79-334
		c43-151,90-241,168-321c138-141,315-208,550-208s431,62,544,174c91,89,150,191,251,432c71,169,107,216,182,232c50,12,96-5,137-50
		c37-41,39-46,133-260c80-183,135-274,207-345c72-70,152-115,256-144c102-29,156-35,290-36c138,0,194,7,280,34c36,11,66,21,67,21
		c0,0-5-24-14-52c-8-29-16-97-17-150c-9-276,98-502,301-638c108-72,186-99,309-105c134-7,244,34,335,125c53,52,99,129,119,200
		c8,27,3,24-55-33c-205-201-407-214-571-36c-68,74-118,156-140,229c-14,45-16,54-21,116c-9,101,32,220,108,312c18,23,20,23,66,8
		c85-27,137-30,197-11c72,23,125,69,164,143l32,60l-36,7c-92,17-192,107-219,198c-19,64-19,77,1,77c28,0,103,42,132,74
		c23,25,62,102,62,121c0,3-14,5-30,5c-17,0-47,7-66,15c-41,17-97,55-91,62c3,2,33,11,68,19c168,39,290,157,318,308c8,46,7,193-2,202
		c-2,3-14-10-26-29c-24-40-105-117-122-117c-8,0-7,5,2,17c9,11,14,43,14,97c0,108-25,157-126,258l-78,77l22,28c12,15,24,30,28,33
		c11,9,115,155,154,215c88,139,185,364,200,466c4,24,8,46,10,49c6,10,15,120,10,120c-3,0-16-10-28-22c-13-13-42-41-66-63l-43-40
		l41,80c44,87,81,186,81,218c0,18-2,19-12,6c-52-63-294-215-387-244c-21-6-21-5,8,25c113,119,152,332,105,579c-8,47-21,96-29,110
		c-18,36-90,105-131,127c-26,14-33,23-28,38c32,101,13,212-47,272c-31,30-37,32-75,25c-71-13-131,9-188,70c-27,30-97,104-154,164
		c-58,61-128,146-155,190c-131,210-249,317-431,389c-127,50-264,65-337,37c-15-5-41-6-62-2c-60,14-163,4-247-24c-44-15-82-31-85-36
		c-12-18-36-8-74,30s-125,86-172,95c-13,2-35,7-49,10C2550,5705,2421,5707,2345,5698z M2821,5274c93-18,188-49,264-87
		c53-26,241-152,361-241c23-17,53-38,65-48c160-113,605-448,595-448c-3,0-36,16-73,36c-196,105-333,197-618,412
		c-222,169-358,229-585,262c-61,8-208,6-285-5c-67-9-239-67-317-106c-154-78-337-228-456-374c-29-35-32-36-23-12
		c84,224,257,425,451,522c73,37,173,74,218,81c20,3,55,9,77,14C2561,5292,2742,5289,2821,5274z M2937,4945c110-16,219-55,343-122
		c134-72,250-157,441-322c109-93,110-94,196-154c233-162,489-258,693-259h65l-50-14c-70-19-166-17-261,6c-164,39-306,115-674,360
		c-113,75-233,153-267,173c-66,40-260,135-290,142c-10,3-49,13-88,24c-137,38-321,23-470-37c-202-81-441-298-600-544
		c-27-43-53-78-56-78c-7,0,22,137,41,195c54,165,159,312,303,423c60,46,156,106,207,129c106,48,180,71,260,80c30,3,56,7,58,8
		C2792,4959,2890,4952,2937,4945z M1804,3808c56-94,214-266,334-362c141-113,338-226,492-281c152-55,360-103,525-121c33-3,67-8,75-9
		c8-2,44-6,80-10s72-9,81-10c9-2,52-6,95-10s88-9,99-11s47-6,80-10c33-3,74-7,90-9c17-2,68-7,115-10c47-4,95-8,108-10
		c22-4,244-17,321-19c31-1,36-5,48-43c19-56,82-125,135-148c24-10,44-20,46-21s-17-29-41-63c-25-33-51-73-58-89l-12-28l-90,23
		c-86,22-105,25-227,43c-56,8-399,6-435-3c-11-3-40-8-65-11c-57-8-126-20-299-52c-101-19-373-105-441-139c-44-23-99-24-154-5
		c-222,79-312,110-335,114c-14,2-57,12-96,21c-38,9-79,19-90,21s-42,8-70,14c-27,5-68,12-90,15c-23,3-51,7-64,10
		c-99,19-414,27-522,14l-46-6l7,31c4,17,6,40,4,51c-5,35-15,231-19,367c-7,289,43,390,250,503c130,71,170,140,145,251
		C1770,3849,1780,3849,1804,3808z M1966,2437c5-3,26-8,48-11c122-19,285-99,364-177c85-85,107-164,88-314c-33-262-150-499-288-582
		c-50-31-173-78-228-88c-112-20-251-23-330-6c-84,18-93,20-154,49c-183,86-293,253-337,511c-5,31-16,92-24,136c-17,104-15,262,5,293
		c33,50,169,121,306,157c59,16,76,20,169,34C1640,2447,1952,2446,1966,2437z M3990,2437c8-4,29-8,45-10c79-12,170-40,256-79l66-30
		l7-52c7-62,24-107,66-172l29-47l-19-37c-11-21-21-53-22-72c-1-21-11-40-26-52c-32-25-85-111-99-158c-13-43-9-151,7-192
		c9-25,7-33-17-65c-110-146-275-221-488-223c-55,0-116,3-135,6c-267,51-387,133-478,327c-59,127-113,357-108,469
		c6,143,146,281,353,347c73,23,95,28,198,43C3680,2448,3966,2445,3990,2437z"/>
	<path class="st0" d="M2711.6,646c0,27.7-22.9,56.3-56.3,56.3c-15,0-28-5.4-38.9-16.3l-280.4-280.4c-9.2-9.2-18.6-20.6-18.6-41.2
		c0-20.5,7.9-30.4,18.2-40.7l280.8-280.8c10.9-10.9,23.9-16.3,38.9-16.3c33.4,0,56.3,28.6,56.3,56.3c0,14.5-5.2,27.8-16.3,38.9
		l-242.7,242.7l242.7,242.7C2706.4,618.2,2711.6,631.5,2711.6,646z M3199.8,405.6L2919.4,686c-10.9,10.9-23.9,16.3-38.9,16.3
		c-33.4,0-56.3-28.6-56.3-56.3c0-14.5,5.2-27.8,16.3-38.9l242.7-242.7l-242.7-242.7c-11.1-11.1-16.3-24.3-16.3-38.9
		c0-27.7,22.9-56.3,56.3-56.3c15,0,28,5.4,38.9,16.3l280.8,280.8c10.3,10.3,18.2,20.2,18.2,40.7C3218.4,385,3209,396.4,3199.8,405.6
		z"/>
</g>
</svg>
