<?xml version="1.0" encoding="utf-8"?>
<!-- Generator: Adobe Illustrator 22.1.0, SVG Export Plug-In . SVG Version: 6.00 Build 0)  -->
<svg version="1.1" id="Layer_1" xmlns="http://www.w3.org/2000/svg" xmlns:xlink="http://www.w3.org/1999/xlink" x="0px" y="0px"
	 viewBox="0 0 595 595" style="enable-background:new 0 0 595 595;" xml:space="preserve">
<style type="text/css">
	.st0{fill:#333333;}
	.st1{fill:#FFFFFF;}
	.st2{display:none;}
	.st3{display:inline;fill:#FFFFFF;}
	.st4{display:none;fill:#FFFFFF;}
</style>
<path class="st0" d="M284,8.9c8-5,18-5,26,0L526,141c8.1,5,13,14.1,13,23.9v264.4c0,9.9-4.9,19-13,23.9L310,585.3
	c-8.1,5-18.1,5-26,0L68.2,453.2c-8.2-5-13.3-14.1-13.3-23.9V164.9c0-9.9,4.8-19,13-23.9L284,8.9z"/>
<path class="st1" d="M285,18.2c7.8-4.8,17.4-4.8,25.2,0l209.3,128c7.8,4.8,12.6,13.7,12.6,23.2v256.2c0,9.6-4.7,18.4-12.6,23.2
	l-209.3,128c-7.8,4.8-17.5,4.8-25.2,0l-209.1-128c-7.9-4.8-12.9-13.7-12.9-23.2V169.4c0-9.6,4.7-18.4,12.6-23.2L285,18.2z"/>
<g transform="translate(0.000000,595.000000) scale(0.100000,-0.100000)">
	<path class="st0" d="M2642.9,5493.8c-133.7-15.2-249.5-65.6-352.6-153.6c-59-50.4-79.2-60.8-87.4-46.4c-6.7,12-50.1,9.6-76.2-3.2
		c-13.4-7.2-35.9-25.6-48.6-41.6c-13.4-16-30.6-30.3-38.1-31.2c-23.2-4-56.1-24.8-77-48.8c-20.9-23.9-41.1-85.6-38.1-116.8
		c2.3-20.8-8.2-27.2-21.7-14.4c-4.4,4-19.4,15.2-35.1,24.8l-26.9,17.6v-74.4c0.8-40.8-0.8-97.5-2.3-126.4c-1.5-28.8,0-61.6,3-73.6
		c4.4-18.4-0.8-27.2-44-72c-62.8-63.9-133.7-164.7-181.5-257.6c-35.1-68.8-63.5-140-58.2-146.3c1.5-0.8,14.2,14.4,28.4,36
		c25.4,37.6,33.6,48.8,70.3,93.6l20.2,24l-15.7-33.6c-32.1-69.6-78.4-214.3-87.4-274.3c-1.5-11.2-5.2-28.8-7.5-40
		c-2.3-10.4-6-32-7.5-48c-1.5-15.2-4.4-36.8-6.7-48c-3-17.6,0.8-15.2,26.9,16l29.9,36l-4.4-43.9c-2.3-24-6-53.6-7.5-65.6
		c-3.7-34.4,7.5-33.6,29.2,1.6c22.4,36,29.9,40.8,20.2,13.6c-3.7-10.4-9-32-11.2-48c-2.3-16-7.5-44.8-11.2-63.2
		c-4.4-19.2-9.8-52-11.9-74.4c-3-21.6-8.2-54.4-11.9-72c-9.8-48.8-9-48.8,23.9-4c29.2,39.2,45.5,49.6,30.6,18.4
		c-15.7-32-26.1-134.4-15.7-154.4c4.4-9.6,6-8,6.7,6.4c0,20.8,25.4,77.5,38.8,86.4c6,4,6.7,1.6,3-8.8c-20.2-56-23.2-199.1-6-244
		l8.2-20l5.2,18.4c8.2,28.8,52.3,124,66.5,141.6l12.7,16l-5.2-16c-24.6-74.4-35.1-120.8-38.1-176c-1.5-35.2-0.8-58.4,1.5-52
		c6.7,16.8,26.1,40,34.4,40c6,0,4.4-64.8-6-244c-3.7-52.8-6-112.8-6.7-134.4v-37.6l-48.6-16.8c-83.7-29.6-184.5-84-198-106.4
		c-12.7-20-11.9-25.6,4.4-115.2c19.4-104,35.9-134.4,70.9-127.2c15.7,3.2,18.7-0.8,24.6-25.6c3.7-16,9-39.2,10.4-52.8
		c8.2-52,37.3-187.1,59-267.1c32.1-120.8,67.2-192.7,125.5-256.8c103.1-112.8,235.3-166.3,410.8-166.3s321.9,49.6,406.4,139.1
		c68,71.1,112,152.7,187.5,345.6c53,135.2,79.9,172.7,136,185.5c37.3,9.6,71.7-4,102.4-40c27.6-32.8,29.2-36.8,99.3-208
		c59.7-146.3,100.8-219.1,154.6-275.9c53.8-56,113.5-91.9,191.3-115.2c76.2-23.2,116.6-28,216.6-28.8c103.1,0,144.9,5.6,209.2,27.2
		c26.9,8.8,49.3,16.8,50.1,16.8c0,0-3.7-19.2-10.4-41.6c-6-23.2-11.9-77.5-12.7-120c-6.7-220.7,73.2-401.5,224.9-510.3
		c80.7-57.5,138.9-79.2,230.8-84c100.1-5.6,182.3,27.2,250.3,100c39.6,41.6,73.9,103.2,88.9,159.9c6,21.6,2.3,19.2-41.1-26.4
		c-153.1-160.8-304-171.2-426.6-28.8c-50.7,59.2-88.2,124.7-104.5,183.2c-10.4,36-11.9,43.2-15.7,92.8
		c-6.7,80.8,23.9,176,80.7,249.6c13.4,18.4,15,18.4,49.3,6.4c63.5-21.6,102.4-24,147.1-8.8c53.8,18.4,93.4,55.2,122.5,114.4l23.9,48
		l-26.9,5.6c-68.7,13.6-143.4,85.6-163.6,158.3c-14.2,51.2-14.2,61.6,0.8,61.6c20.9,0,77,33.6,98.6,59.2
		c17.1,20,46.3,81.6,46.3,96.8c0,2.4-10.4,4-22.4,4c-12.7,0-35.1,5.6-49.3,12c-30.6,13.6-72.4,43.9-68,49.6
		c2.3,1.6,24.6,8.8,50.7,15.2c125.5,31.2,216.6,125.5,237.6,246.3c6,36.8,5.2,154.4-1.5,161.6c-1.5,2.4-10.4-8-19.4-23.2
		c-17.9-32-78.4-93.6-91.1-93.6c-6,0-5.2,4,1.5,13.6c6.7,8.8,10.4,34.4,10.4,77.5c0,86.4-18.7,125.5-94.1,206.3l-58.2,61.6
		l16.5,22.4c9,12,17.9,24,20.9,26.4c8.2,7.2,85.9,124,115,171.9c65.7,111.1,138.1,291.2,149.4,372.8c3,19.2,6,36.8,7.5,39.2
		c4.4,8,11.2,96,7.5,96c-2.3,0-11.9-8-20.9-17.6c-9.8-10.4-31.3-32.8-49.3-50.4l-32.1-32l30.6,63.9c32.9,69.6,60.5,148.8,60.5,174.4
		c0,14.4-1.5,15.2-9,4.8c-38.8-50.4-219.6-171.9-289.1-195.2c-15.7-4.8-15.7-4,6,20c84.4,95.2,113.5,265.5,78.4,463.1
		c-6,37.6-15.7,76.8-21.7,88c-13.4,28.8-67.2,84-97.8,101.6c-19.4,11.2-24.6,18.4-20.9,30.3c23.9,80.8,9.8,169.6-35.1,217.6
		c-23.2,24-27.6,25.6-56.1,20c-53-10.4-97.8,7.2-140.4,56c-20.2,24-72.4,83.2-115,131.1c-43.4,48.8-95.6,116.8-115.8,151.9
		c-97.8,168-186,253.5-321.9,311.2c-94.9,40-197.2,52-251.8,29.6c-11.2-4-30.6-4.8-46.3-1.6c-44.8,11.2-121.8,3.2-184.5-19.2
		c-32.9-12-61.3-24.8-63.5-28.8c-9-14.4-26.9-6.4-55.3,24c-28.4,30.4-93.4,68.8-128.5,76c-9.8,1.6-26.1,5.6-36.6,8
		C2796,5499.4,2699.7,5501,2642.9,5493.8z M2998.5,5154.6c69.5-14.4,140.4-39.2,197.2-69.6c39.6-20.8,180-121.6,269.7-192.7
		c17.1-13.6,39.6-30.3,48.6-38.4c119.5-90.4,451.9-358.4,444.5-358.4c-2.3,0-26.9,12.8-54.5,28.8c-146.4,84-248.7,157.6-461.6,329.5
		c-165.8,135.2-267.4,183.2-437,209.6c-45.5,6.4-155.4,4.8-212.9-4c-50.1-7.2-178.5-53.6-236.8-84.7
		c-115-62.4-251.8-182.4-340.6-299.1c-21.7-28-23.9-28.8-17.1-9.6c62.8,179.1,191.9,339.9,336.9,417.5
		c54.5,29.6,129.2,59.2,162.9,64.8c15,2.4,41.1,7.2,57.5,11.2C2804.3,5169,2939.5,5166.6,2998.5,5154.6z M3085.1,4891.5
		c82.2-12.8,163.6-43.9,256.2-97.5c100.1-57.5,186.7-125.5,329.4-257.6c81.4-74.4,82.2-75.2,146.4-123.2
		c174-129.6,365.3-206.3,517.6-207.1h48.6l-37.3-11.2c-52.3-15.2-124-13.6-195,4.8c-122.5,31.2-228.6,91.9-503.4,287.9
		c-84.4,60-174,122.4-199.4,138.3c-49.3,32-194.2,108-216.6,113.6c-7.5,2.4-36.6,10.4-65.7,19.2c-102.4,30.3-239.7,18.4-351.1-29.6
		c-150.9-64.8-329.4-238.4-448.1-435.1c-20.2-34.4-39.6-62.4-41.9-62.4c-5.2,0,16.5,109.6,30.6,156
		c40.3,131.9,118.7,249.6,226.3,338.4c44.8,36.8,116.6,84.7,154.6,103.2c79.2,38.4,134.5,56.8,194.2,63.9
		c22.4,2.4,41.9,5.6,43.4,6.4C2976.8,4902.7,3050,4897.1,3085.1,4891.5z M2238.8,3982.1c41.9-75.2,159.8-212.7,249.5-289.5
		c105.3-90.4,252.4-180.8,367.5-224.8c113.5-43.9,268.9-82.4,392.2-96.8c24.6-2.4,50.1-6.4,56.1-7.2c6-1.6,32.9-4.8,59.7-8
		c26.9-3.2,53.8-7.2,60.5-8c6.7-1.6,38.8-4.8,70.9-8s65.7-7.2,73.9-8.8c8.2-1.6,35.1-4.8,59.7-8c24.6-2.4,55.3-5.6,67.2-7.2
		c12.7-1.6,50.7-5.6,85.9-8c35.1-3.2,70.9-6.4,80.7-8c16.5-3.2,182.3-13.6,239.7-15.2c23.2-0.8,26.9-4,35.9-34.4
		c14.2-44.8,61.3-100,100.8-118.3c17.9-8,32.9-16,34.4-16.8s-12.7-23.2-30.6-50.4c-18.7-26.4-38.1-58.4-43.4-71.1l-9-22.4
		l-67.2,18.4c-64.2,17.6-78.4,20-169.6,34.4c-41.9,6.4-298.1,4.8-325-2.4c-8.2-2.4-29.9-6.4-48.6-8.8c-42.6-6.4-94.1-16-223.4-41.6
		c-75.5-15.2-278.7-84-329.4-111.1c-32.9-18.4-73.9-19.2-115-4c-165.8,63.2-233,88-250.3,91.1c-10.4,1.6-42.6,9.6-71.7,16.8
		c-28.4,7.2-59,15.2-67.2,16.8c-8.2,1.6-31.3,6.4-52.3,11.2c-20.2,4-50.7,9.6-67.2,12c-17.1,2.4-38.1,5.6-47.8,8
		c-73.9,15.2-309.2,21.6-389.9,11.2l-34.4-4.8l5.2,24.8c3,13.6,4.4,32,3,40.8c-3.7,28-11.2,184.8-14.2,293.5
		c-5.2,231.2,32.1,312,186.7,402.3c97.1,56.8,127,111.9,108.3,200.7C2213.5,4014.9,2220.9,4014.9,2238.8,3982.1z M2359.8,2885.5
		c3.7-2.4,19.4-6.4,35.9-8.8c91.1-15.2,212.9-79.2,271.9-141.6c63.5-68,79.9-131.1,65.7-251.2c-24.6-209.6-112-399.2-215.1-465.5
		c-37.3-24.8-129.2-62.4-170.3-70.4c-83.7-16-187.5-18.4-246.5-4.8c-62.8,14.4-69.5,16-115,39.2
		c-136.7,68.8-218.8,202.4-251.8,408.7c-3.7,24.8-11.9,73.6-17.9,108.8c-12.7,83.2-11.2,209.6,3.7,234.3
		c24.6,40,126.2,96.8,228.6,125.5c44,12.8,56.8,16,126.2,27.2C2116.3,2893.6,2349.3,2892.7,2359.8,2885.5z M3871.7,2885.5
		c6-3.2,21.7-6.4,33.6-8c59-9.6,127-32,191.3-63.2l49.3-24l5.2-41.6c5.2-49.6,17.9-85.6,49.3-137.6l21.7-37.6l-14.2-29.6
		c-8.2-16.8-15.7-42.4-16.5-57.5c-0.8-16.8-8.2-32-19.4-41.6c-23.9-20-63.5-88.8-73.9-126.4c-9.8-34.4-6.7-120.8,5.2-153.6
		c6.7-20,5.2-26.4-12.7-52c-82.2-116.8-205.4-176.8-364.5-178.3c-41.1,0-86.6,2.4-100.8,4.8c-199.4,40.8-289.1,106.4-357.1,261.5
		c-44,101.6-84.4,285.6-80.7,375.1c4.4,114.4,109.1,224.8,263.7,277.6c54.5,18.4,70.9,22.4,147.9,34.4
		C3640.1,2894.3,3853.8,2891.9,3871.7,2885.5z"/>
</g>
<g transform="translate(0.000000,595.000000) scale(0.100000,-0.100000)" class="st2">
	<path class="st3" d="M2652.4,5501.8c-135.7-15.4-253.2-66.6-357.8-155.9c-59.9-51.1-80.4-61.7-88.7-47.1
		c-6.8,12.2-50.8,9.7-77.3-3.2c-13.6-7.3-36.4-26-49.3-42.2c-13.6-16.2-31.1-30.8-38.7-31.7c-23.5-4.1-56.9-25.2-78.1-49.5
		c-21.2-24.4-41.7-86.9-38.7-118.5c2.3-21.1-8.3-27.6-22-14.6c-4.5,4.1-19.7,15.4-35.6,25.2l-27.3,17.9v-75.5
		c0.8-41.4-0.8-99-2.3-128.3c-1.5-29.2,0-62.5,3-74.7c4.5-18.7-0.8-27.6-44.7-73.1c-63.7-64.9-135.7-167.2-184.2-261.4
		c-35.6-69.8-64.4-142.1-59.1-148.5c1.5-0.8,14.4,14.6,28.8,36.5c25.8,38.2,34.1,49.5,71.3,95l20.5,24.4l-15.9-34.1
		c-32.6-70.6-79.6-217.5-88.7-278.4c-1.5-11.4-5.3-29.2-7.6-40.6c-2.3-10.6-6.1-32.5-7.6-48.7c-1.5-15.4-4.5-37.3-6.8-48.7
		c-3-17.9,0.8-15.4,27.3,16.2l30.3,36.5l-4.5-44.6c-2.3-24.4-6.1-54.4-7.6-66.6c-3.8-34.9,7.6-34.1,29.6,1.6
		c22.7,36.5,30.3,41.4,20.5,13.8c-3.8-10.6-9.1-32.5-11.4-48.7s-7.6-45.5-11.4-64.1c-4.5-19.5-9.9-52.8-12.1-75.5
		c-3-21.9-8.3-55.2-12.1-73.1c-9.9-49.5-9.1-49.5,24.3-4.1c29.6,39.8,46.2,50.3,31.1,18.7c-15.9-32.5-26.5-136.4-15.9-156.7
		c4.5-9.7,6.1-8.1,6.8,6.5c0,21.1,25.8,78.7,39.4,87.7c6.1,4.1,6.8,1.6,3-8.9c-20.5-56.8-23.5-202.1-6.1-247.6l8.3-20.3l5.3,18.7
		c8.3,29.2,53.1,125.8,67.5,143.7l12.9,16.2l-5.3-16.2c-25-75.5-35.6-122.6-38.7-178.6c-1.5-35.7-0.8-59.3,1.5-52.8
		c6.8,17,26.5,40.6,34.9,40.6c6.1,0,4.5-65.8-6.1-247.6c-3.8-53.6-6.1-114.5-6.8-136.4v-38.2l-49.3-17
		c-84.9-30-187.2-85.2-200.9-108c-12.9-20.3-12.1-26,4.5-116.9c19.7-105.5,36.4-136.4,72-129.1c15.9,3.2,19-0.8,25-26
		c3.8-16.2,9.1-39.8,10.6-53.6c8.3-52.8,37.9-189.9,59.9-271.1c32.6-122.6,68.2-195.6,127.4-260.6
		c104.6-114.5,238.8-168.8,416.9-168.8s326.7,50.3,412.4,141.2c69,72.2,113.7,155,190.3,350.7c53.8,137.2,81.1,175.3,138,188.3
		c37.9,9.7,72.8-4.1,103.9-40.6c28-33.3,29.6-37.3,100.8-211.1c60.6-148.5,102.3-222.4,156.9-280c54.6-56.8,115.2-93.3,194.1-116.9
		c77.3-23.5,118.3-28.4,219.8-29.2c104.6,0,147.1,5.7,212.3,27.6c27.3,8.9,50,17,50.8,17c0,0-3.8-19.5-10.6-42.2
		c-6.1-23.5-12.1-78.7-12.9-121.8c-6.8-224,74.3-407.5,228.2-517.9c81.9-58.4,141-80.4,234.2-85.2c101.6-5.7,185,27.6,254,101.5
		c40.2,42.2,75,104.7,90.2,162.3c6.1,21.9,2.3,19.5-41.7-26.8c-155.4-163.2-308.5-173.7-432.9-29.2
		c-51.5,60.1-89.5,126.6-106.1,185.9c-10.6,36.5-12.1,43.8-15.9,94.2c-6.8,82,24.3,178.6,81.9,253.3c13.6,18.7,15.2,18.7,50,6.5
		c64.4-21.9,103.9-24.4,149.3-8.9c54.6,18.7,94.8,56,124.3,116.1l24.3,48.7l-27.3,5.7c-69.7,13.8-145.5,86.9-166,160.7
		c-14.4,52-14.4,62.5,0.8,62.5c21.2,0,78.1,34.1,100.1,60.1c17.4,20.3,47,82.8,47,98.2c0,2.4-10.6,4.1-22.7,4.1
		c-12.9,0-35.6,5.7-50,12.2c-31.1,13.8-73.5,44.6-69,50.3c2.3,1.6,25,8.9,51.5,15.4c127.4,31.7,219.8,127.4,241.1,250
		c6.1,37.3,5.3,156.7-1.5,164c-1.5,2.4-10.6-8.1-19.7-23.5c-18.2-32.5-79.6-95-92.5-95c-6.1,0-5.3,4.1,1.5,13.8
		c6.8,8.9,10.6,34.9,10.6,78.7c0,87.7-19,127.4-95.5,209.4l-59.1,62.5l16.7,22.7c9.1,12.2,18.2,24.4,21.2,26.8
		c8.3,7.3,87.2,125.8,116.7,174.5c66.7,112.8,140.2,295.5,151.6,378.3c3,19.5,6.1,37.3,7.6,39.8c4.5,8.1,11.4,97.4,7.6,97.4
		c-2.3,0-12.1-8.1-21.2-17.9c-9.9-10.6-31.8-33.3-50-51.1l-32.6-32.5l31.1,64.9c33.4,70.6,61.4,151,61.4,177
		c0,14.6-1.5,15.4-9.1,4.9c-39.4-51.1-222.9-174.5-293.4-198.1c-15.9-4.9-15.9-4.1,6.1,20.3c85.7,96.6,115.2,269.5,79.6,470
		c-6.1,38.2-15.9,77.9-22,89.3c-13.6,29.2-68.2,85.2-99.3,103.1c-19.7,11.4-25,18.7-21.2,30.8c24.3,82,9.9,172.1-35.6,220.8
		c-23.5,24.4-28,26-56.9,20.3c-53.8-10.6-99.3,7.3-142.5,56.8c-20.5,24.4-73.5,84.4-116.7,133.1c-44,49.5-97,118.5-117.5,154.2
		c-99.3,170.5-188.8,257.3-326.7,315.8c-96.3,40.6-200.1,52.8-255.5,30c-11.4-4.1-31.1-4.9-47-1.6c-45.5,11.4-123.6,3.2-187.2-19.5
		c-33.4-12.2-62.2-25.2-64.4-29.2c-9.1-14.6-27.3-6.5-56.1,24.4c-28.8,30.8-94.8,69.8-130.4,77.1c-9.9,1.6-26.5,5.7-37.1,8.1
		C2807.8,5507.5,2710,5509.1,2652.4,5501.8z M3013.2,5157.6c70.5-14.6,142.5-39.8,200.1-70.6c40.2-21.1,182.7-123.4,273.7-195.6
		c17.4-13.8,40.2-30.8,49.3-39c121.3-91.7,458.6-363.7,451.1-363.7c-2.3,0-27.3,13-55.3,29.2c-148.6,85.2-252.4,159.9-468.5,334.4
		c-168.3,137.2-271.4,185.9-443.5,212.7c-46.2,6.5-157.7,4.9-216.1-4.1c-50.8-7.3-181.2-54.4-240.3-86
		c-116.7-63.3-255.5-185.1-345.7-303.6c-22-28.4-24.3-29.2-17.4-9.7c63.7,181.8,194.8,345,341.9,423.7
		c55.3,30,131.1,60.1,165.3,65.8c15.2,2.4,41.7,7.3,58.4,11.4C2816.1,5172.3,2953.3,5169.8,3013.2,5157.6z M3101.1,4890.6
		c83.4-13,166-44.6,260-99c101.6-58.4,189.5-127.4,334.3-261.4c82.6-75.5,83.4-76.3,148.6-125c176.6-131.5,370.7-209.4,525.3-210.2
		h49.3l-37.9-11.4c-53.1-15.4-125.8-13.8-197.9,4.9c-124.3,31.7-232,93.3-510.9,292.2c-85.7,60.9-176.6,124.2-202.4,140.4
		c-50,32.5-197.1,109.6-219.8,115.3c-7.6,2.4-37.1,10.6-66.7,19.5c-103.9,30.8-243.3,18.7-356.3-30
		c-153.1-65.8-334.3-241.9-454.8-441.6c-20.5-34.9-40.2-63.3-42.5-63.3c-5.3,0,16.7,111.2,31.1,158.3
		c40.9,133.9,120.5,253.3,229.7,343.4c45.5,37.3,118.3,86,156.9,104.7c80.4,39,136.5,57.6,197.1,64.9c22.7,2.4,42.5,5.7,44,6.5
		C2991.2,4902,3065.5,4896.3,3101.1,4890.6z M2242.2,3967.6c42.5-76.3,162.2-215.9,253.2-293.8c106.9-91.7,256.2-183.5,373-228.1
		c115.2-44.6,272.9-83.6,398-98.2c25-2.4,50.8-6.5,56.9-7.3c6.1-1.6,33.4-4.9,60.6-8.1c27.3-3.2,54.6-7.3,61.4-8.1
		c6.8-1.6,39.4-4.9,72-8.1c32.6-3.2,66.7-7.3,75-8.9c8.3-1.6,35.6-4.9,60.6-8.1c25-2.4,56.1-5.7,68.2-7.3
		c12.9-1.6,51.5-5.7,87.2-8.1c35.6-3.2,72-6.5,81.9-8.1c16.7-3.2,185-13.8,243.3-15.4c23.5-0.8,27.3-4.1,36.4-34.9
		c14.4-45.5,62.2-101.5,102.3-120.1c18.2-8.1,33.4-16.2,34.9-17s-12.9-23.5-31.1-51.1c-19-26.8-38.7-59.3-44-72.2l-9.1-22.7
		l-68.2,18.7c-65.2,17.9-79.6,20.3-172.1,34.9c-42.5,6.5-302.5,4.9-329.8-2.4c-8.3-2.4-30.3-6.5-49.3-8.9
		c-43.2-6.5-95.5-16.2-226.7-42.2c-76.6-15.4-282.8-85.2-334.3-112.8c-33.4-18.7-75-19.5-116.7-4.1c-168.3,64.1-236.5,89.3-254,92.5
		c-10.6,1.6-43.2,9.7-72.8,17c-28.8,7.3-59.9,15.4-68.2,17s-31.8,6.5-53.1,11.4c-20.5,4.1-51.5,9.7-68.2,12.2
		c-17.4,2.4-38.7,5.7-48.5,8.1c-75,15.4-313.8,21.9-395.7,11.4l-34.9-4.9l5.3,25.2c3,13.8,4.5,32.5,3,41.4
		c-3.8,28.4-11.4,187.5-14.4,297.9c-5.3,234.6,32.6,316.6,189.5,408.3c98.5,57.6,128.9,113.6,109.9,203.7
		C2216.5,4000.9,2224.1,4000.9,2242.2,3967.6z M2365.1,2854.8c3.8-2.4,19.7-6.5,36.4-8.9c92.5-15.4,216.1-80.4,275.9-143.7
		c64.4-69,81.1-133.1,66.7-254.9c-25-212.7-113.7-405.1-218.3-472.4c-37.9-25.2-131.1-63.3-172.8-71.4
		c-84.9-16.2-190.3-18.7-250.2-4.9c-63.7,14.6-70.5,16.2-116.7,39.8c-138.7,69.8-222.1,205.4-255.5,414.8
		c-3.8,25.2-12.1,74.7-18.2,110.4c-12.9,84.4-11.4,212.7,3.8,237.8c25,40.6,128.1,98.2,232,127.4c44.7,13,57.6,16.2,128.1,27.6
		C2117.9,2862.9,2354.4,2862.1,2365.1,2854.8z M3899.4,2854.8c6.1-3.2,22-6.5,34.1-8.1c59.9-9.7,128.9-32.5,194.1-64.1l50-24.4
		l5.3-42.2c5.3-50.3,18.2-86.9,50-139.6l22-38.2l-14.4-30c-8.3-17-15.9-43-16.7-58.4c-0.8-17-8.3-32.5-19.7-42.2
		c-24.3-20.3-64.4-90.1-75-128.3c-9.9-34.9-6.8-122.6,5.3-155.9c6.8-20.3,5.3-26.8-12.9-52.8c-83.4-118.5-208.5-179.4-369.9-181
		c-41.7,0-87.9,2.4-102.3,4.9c-202.4,41.4-293.4,108-362.4,265.4c-44.7,103.1-85.7,289.8-81.9,380.7
		c4.5,116.1,110.7,228.1,267.6,281.7c55.3,18.7,72,22.7,150.1,34.9C3664.4,2863.7,3881.2,2861.2,3899.4,2854.8z"/>
</g>
<path class="st0" d="M291.9,461.4c0-2.5-2.1-5-5-5c-1.3,0-2.5,0.4-3.5,1.4l-25.1,25.1c-0.8,0.8-1.7,1.9-1.7,3.7
	c0,1.8,0.7,2.7,1.6,3.7l25.2,25.2c1,1,2.1,1.4,3.5,1.4c3,0,5-2.6,5-5c0-1.3-0.4-2.5-1.4-3.5l-21.8-21.8l21.8-21.8
	C291.4,464,291.9,462.8,291.9,461.4z M335.7,482.9l-25.1-25.1c-1-1-2.1-1.4-3.5-1.4c-3,0-5,2.6-5,5c0,1.3,0.4,2.5,1.4,3.5l21.8,21.8
	l-21.8,21.8c-1,1-1.4,2.1-1.4,3.5c0,2.5,2.1,5,5,5c1.3,0,2.5-0.4,3.5-1.4l25.2-25.2c0.9-0.9,1.6-1.8,1.6-3.7
	C337.4,484.8,336.6,483.8,335.7,482.9z"/>
<path class="st4" d="M292.6,460c0-2.8-2.3-5.6-5.6-5.6c-1.5,0-2.8,0.5-3.9,1.6l-28,28c-0.9,0.9-1.9,2.1-1.9,4.1s0.8,3,1.8,4.1
	l28.1,28.1c1.1,1.1,2.4,1.6,3.9,1.6c3.3,0,5.6-2.9,5.6-5.6c0-1.5-0.5-2.8-1.6-3.9l-24.3-24.2L291,464
	C292,462.9,292.6,461.5,292.6,460z M341.5,484l-28-28c-1.1-1.1-2.4-1.6-3.9-1.6c-3.3,0-5.6,2.9-5.6,5.6c0,1.5,0.5,2.8,1.6,3.9
	l24.3,24.3l-24.3,24.3c-1.1,1.1-1.6,2.4-1.6,3.9c0,2.8,2.3,5.6,5.6,5.6c1.5,0,2.8-0.5,3.9-1.6l28.1-28.1c1-1,1.8-2,1.8-4.1
	S342.4,485,341.5,484z"/>
</svg>
